
<svg version="1.1" id="cup" xmlns="http://www.w3.org/2000/svg" xmlns:xlink="http://www.w3.org/1999/xlink" x="0px" y="0px"
	 width="88.917px" height="86.834px" viewBox="0 0 88.917 86.834" enable-background="new 0 0 88.917 86.834" xml:space="preserve">
<g>
	<path fill="#6C7988" d="M78.089,83.483H15.604c-5.566,0-10.093-4.525-10.093-10.092V10.904c0-5.565,4.527-10.094,10.093-10.094
		h62.485c5.564,0,10.095,4.528,10.095,10.094v62.488C88.184,78.958,83.656,83.483,78.089,83.483z M15.604,2.261
		c-4.766,0-8.643,3.877-8.643,8.643v62.488c0,4.768,3.877,8.646,8.643,8.646h62.485c4.769,0,8.646-3.878,8.646-8.646V10.904
		c0-4.766-3.877-8.643-8.646-8.643H15.604z"/>
</g>
<path fill="#6C7988" d="M46.807,10.796c-7.092,0-13.643,2.36-18.91,6.337L17.361,6.598c-0.876-0.876-2.028-1.359-3.242-1.359
	c-1.183,0-2.299,0.464-3.141,1.307L10.883,6.64c-1.774,1.774-1.774,4.662,0,6.436L21.46,23.654
	c-3.833,5.211-6.101,11.641-6.101,18.593c0,17.34,14.107,31.447,31.448,31.447c17.342,0,31.448-14.107,31.448-31.447
	C78.255,24.904,64.149,10.796,46.807,10.796z M11.909,12.049c-1.208-1.21-1.208-3.177-0.001-4.385l0.095-0.094
	c0.568-0.568,1.32-0.881,2.116-0.881c0.827,0,1.614,0.332,2.217,0.935L26.753,18.04c-1.609,1.335-3.082,2.829-4.398,4.455
	L11.909,12.049z M46.807,72.243c-16.541,0-29.998-13.455-29.998-29.996c0-16.542,13.457-30,29.998-30s29.997,13.457,29.997,30
	C76.804,58.788,63.348,72.243,46.807,72.243z"/>
<path fill="#6C7988" d="M46.775,15.728c-14.627,0-26.486,11.858-26.486,26.486c0,14.629,11.858,26.486,26.486,26.486
	c14.629,0,26.486-11.857,26.486-26.486C73.263,27.585,61.404,15.728,46.775,15.728z M24.609,37.649
	c-0.435,0-0.788-0.353-0.788-0.788s0.353-0.787,0.788-0.787s0.787,0.353,0.787,0.787C25.397,37.296,25.045,37.649,24.609,37.649z
	 M26.631,34.805c-0.55,0-0.997-0.446-0.997-0.997c0-0.551,0.446-0.997,0.997-0.997c0.551,0,0.998,0.446,0.998,0.997
	C27.629,34.358,27.183,34.805,26.631,34.805z M45.85,19.395c0.551,0,0.998,0.446,0.998,0.997c0,0.551-0.445,0.997-0.998,0.997
	c-0.55,0-0.996-0.446-0.996-0.997C44.854,19.84,45.298,19.395,45.85,19.395z M41.272,20.12c0.926,0,1.677,0.751,1.677,1.678
	c0,0.926-0.75,1.678-1.677,1.678c-0.927,0-1.677-0.752-1.677-1.678C39.595,20.871,40.346,20.12,41.272,20.12z M35.697,22.385
	c1.652,0,2.992,1.339,2.992,2.991s-1.34,2.992-2.992,2.992c-1.652,0-2.991-1.34-2.991-2.992S34.045,22.385,35.697,22.385z
	 M30.394,27.101c0.625,0,1.133,0.507,1.133,1.132c0,0.626-0.507,1.133-1.133,1.133s-1.133-0.507-1.133-1.133
	S29.768,27.101,30.394,27.101z M29.261,32.628c0-0.901,0.73-1.631,1.632-1.631c0.901,0,1.631,0.729,1.631,1.631
	c0,0.902-0.73,1.632-1.631,1.632C29.991,34.26,29.261,33.531,29.261,32.628z M57.244,60.628c-9.287,5.342-20.669,2.695-25.445-5.607
	c-4.774-8.304-0.768-20.829,8.521-26.167c9.29-5.34,22.418-2.502,27.193,5.802C72.287,42.958,66.533,55.29,57.244,60.628z"/>
<path opacity="0.2" fill="#6C7988" enable-background="new    " d="M46.807,73.694c-17.34,0-31.448-14.107-31.448-31.447
	c0-4.958,1.155-9.65,3.207-13.826C15.158,34,13.545,38.963,13.545,46.44c-0.001,16.563,15.042,28.813,29.339,28.813
	c8,0,13.198-1.561,19.103-5.472C57.483,72.274,52.309,73.694,46.807,73.694z"/>
<path opacity="0.2" fill="#6C7988" enable-background="new    " d="M78.089,83.483H15.604c-5.566,0-10.093-4.525-10.093-10.092
	V10.904c0-2.493,0.911-4.776,2.414-6.54c-3.361,1.638-4.678,5.088-4.678,9.078v62.489c0,7.553,5.637,10.903,11.211,10.903h60.375
	c3.086,0,5.84-2.194,7.688-4.375C81.184,83.114,79.679,83.483,78.089,83.483z"/>
<path opacity="0.6" fill="#6C7988" enable-background="new    " d="M29.532,54.112c0,0-4.169-10.604,1.723-17.766
	c5.892-7.162,12.418-16.759,31.366-7.926c1.541,0.764,14.303,10.698,4.434,24.812C63.345,57.739,44.761,77.503,29.532,54.112z"/>
</svg>
